<?xml version="1.0" encoding="UTF-8"?>
<svg width="25px" height="25px" viewBox="0 0 25 25" version="1.1" xmlns="http://www.w3.org/2000/svg" xmlns:xlink="http://www.w3.org/1999/xlink">
    <!-- Generator: Sketch 63.1 (92452) - https://sketch.com -->
    <title>linkedin copy</title>
    <desc>Created with Sketch.</desc>
    <g id="Social-Icons" stroke="none" stroke-width="1" fill="none" fill-rule="evenodd">
        <g id="linkedin-copy">
            <rect id="Rectangle" x="0" y="0" width="25" height="25"></rect>
            <circle id="Oval" stroke="#000000" stroke-width="2" cx="12.5" cy="12.5" r="11.5"></circle>
            <path d="M7.10481164,10.4619961 L9.31967844,10.4619961 L9.31967844,18.1810906 L7.10481164,18.1810906 L7.10481164,10.4619961 Z M8.15578765,9.4964726 L8.13975242,9.4964726 C7.33799068,9.4964726 6.81818182,8.90639006 6.81818182,8.15914621 C6.81818182,7.39662278 7.35335778,6.81818182 8.17115475,6.81818182 C8.98828359,6.81818182 9.49072094,7.39516758 9.50675618,8.15696341 C9.50675618,8.90420727 8.98828359,9.4964726 8.15578765,9.4964726 L8.15578765,9.4964726 Z M18.1818182,18.1818182 L15.6702995,18.1818182 L15.6702995,14.1865738 C15.6702995,13.1410144 15.2774363,12.4279677 14.413538,12.4279677 C13.7527527,12.4279677 13.3852786,12.9089105 13.2142361,13.373846 C13.1500951,13.5397385 13.1601172,13.7718425 13.1601172,14.0046741 L13.1601172,18.1818182 L10.6719832,18.1818182 C10.6719832,18.1818182 10.7040537,11.1051933 10.6719832,10.4619961 L13.1601172,10.4619961 L13.1601172,11.6734479 C13.3071068,11.143756 14.1021872,10.387781 15.3709752,10.387781 C16.9451007,10.387781 18.1818182,11.4988242 18.1818182,13.8889859 L18.1818182,18.1818182 L18.1818182,18.1818182 Z" id="Shape" fill="#000000"></path>
        </g>
    </g>
</svg>