<?xml version="1.0" encoding="utf-8"?>
<!-- Generator: Adobe Illustrator 24.3.0, SVG Export Plug-In . SVG Version: 6.00 Build 0)  -->
<svg version="1.1" id="Layer_1" xmlns="http://www.w3.org/2000/svg" xmlns:xlink="http://www.w3.org/1999/xlink" x="0px" y="0px"
	 viewBox="0 0 50 50" style="enable-background:new 0 0 50 50;" xml:space="preserve">
<g>
	<path d="M25,3.5C13.1,3.5,3.5,13.1,3.5,25S13.1,46.5,25,46.5S46.5,36.9,46.5,25S36.9,3.5,25,3.5z M25,44.1
		C14.4,44.1,5.9,35.6,5.9,25S14.4,5.9,25,5.9S44.1,14.4,44.1,25S35.6,44.1,25,44.1z"/>
	<path d="M25.8,13.4c-0.5-0.5-1.2-0.5-1.7,0L13.4,24.2c-0.5,0.5-0.5,1.2,0,1.7c0.5,0.5,1.2,0.5,1.7,0l8.7-8.7v17.5
		c0,0.7,0.5,1.2,1.2,1.2s1.2-0.5,1.2-1.2V17.1l8.7,8.7c0.2,0.2,0.5,0.4,0.8,0.4c0.3,0,0.6-0.1,0.8-0.4c0.5-0.5,0.5-1.2,0-1.7
		L25.8,13.4z"/>
</g>
</svg>
